<svg xmlns="http://www.w3.org/2000/svg" viewBox="0 0 145.5 61.85"><defs><style>.cls-1{fill:#fff;}</style></defs><g id="圖層_2" data-name="圖層 2"><g id="圖層_1-2" data-name="圖層 1"><path d="M32.35,52.25h1.2l.2,4a9.7,9.7,0,0,0,.1,1.7h0c.1-.6.1-1.1.2-1.7l.3-2.2h.9l.3,2.2c.1.6.1,1,.2,1.7h0v-1.7l.2-4h1.1l-.6,7.2h-1.4l-.3-2.5a6.6,6.6,0,0,1-.1-1.4h0c0,.4-.1.9-.1,1.4l-.3,2.5H33Z"/><path d="M37.55,58.05c0-1.2,1-1.8,2.6-2.1,0-.6-.3-1-.7-1a2.37,2.37,0,0,0-1.2.5l-.5-.9a3.86,3.86,0,0,1,2-.6c1.1,0,1.9.8,1.9,2.2v3.3h-1.1l-.1-.6h0a1.62,1.62,0,0,1-1.4.7A1.37,1.37,0,0,1,37.55,58.05Zm2.6-.1v-1.1c-.9.2-1.2.5-1.2,1.1,0,.4.2.6.5.6A1.87,1.87,0,0,0,40.15,58Z"/><path d="M43.45,57.55v-4.5h-1.1V52h2.5v5.7c0,.6.3.8.6.8a.55.55,0,0,0,.5-.2l.3,1.1a2.77,2.77,0,0,1-1.3.3C44.05,59.55,43.45,58.75,43.45,57.55Z"/><path d="M47.25,52h1.4v4.3h0l1.3-2.2h1.5l-1.4,2.2,1.5,3.2h-1.4l-.9-2.2-.5.9v1.3h-1.4V52Z"/><path d="M53.75,55.15h-1.6v-1.1h3v5.4h-1.4Zm-.2-2.8a.82.82,0,0,1,.9-.8.74.74,0,0,1,.8.8.79.79,0,0,1-.8.8A.82.82,0,0,1,53.55,52.35Z"/><path d="M57,54.05h1.1l.1.7h0a1.84,1.84,0,0,1,1.4-.8c.9,0,1.3.7,1.3,1.9v3.7h-1.4v-3.5c0-.6-.1-.8-.5-.8s-.5.2-.7.6v3.8h-1.4v-5.6Z"/><path d="M61.65,60.35a1.25,1.25,0,0,1,.6-1.1h0a1.05,1.05,0,0,1-.5-.9,1.1,1.1,0,0,1,.6-1h0a1.56,1.56,0,0,1-.6-1.4,1.76,1.76,0,0,1,1.8-1.9,1.27,1.27,0,0,1,.6.1h1.7v1.1h-.8a1.88,1.88,0,0,1,.2.8,1.64,1.64,0,0,1-1.6,1.8,1.27,1.27,0,0,1-.6-.1c-.1.1-.1.2-.1.4s.2.5.7.5h.6c1.1,0,1.7.4,1.7,1.4s-.9,1.8-2.4,1.8C62.45,61.65,61.65,61.25,61.65,60.35Zm2.9-.3c0-.4-.3-.5-.7-.5h-.2a1.08,1.08,0,0,1-.6-.1.73.73,0,0,0-.2.6q0,.6.9.6A.7.7,0,0,0,64.55,60.05Zm-.5-4.3c0-.7-.2-1-.5-1s-.5.3-.5,1,.2,1,.5,1S64.05,56.45,64.05,55.75Z"/><path d="M73.05,55.15h-1.6v-1.1h3v5.4h-1.4Zm-.2-2.8a.82.82,0,0,1,.9-.8.74.74,0,0,1,.8.8.79.79,0,0,1-.8.8C73.15,53.15,72.85,52.85,72.85,52.35Z"/><path d="M76.25,54.05h1.1l.1.7h0a1.84,1.84,0,0,1,1.4-.8c.9,0,1.3.7,1.3,1.9v3.7h-1.4v-3.5c0-.6-.1-.8-.5-.8s-.5.2-.7.6v3.8h-1.4v-5.6Z"/><path d="M87.15,53.45h-1.5v-1.2h4.4v1.2h-1.5v6h-1.4Z"/><path d="M90.65,58.05c0-1.2,1-1.8,2.6-2.1,0-.6-.3-1-.7-1a2.37,2.37,0,0,0-1.2.5l-.5-.9a3.86,3.86,0,0,1,2-.6c1.1,0,1.9.8,1.9,2.2v3.3h-1.1l-.1-.6h0a1.62,1.62,0,0,1-1.4.7A1.37,1.37,0,0,1,90.65,58.05Zm2.5-.1v-1.1c-.9.2-1.2.5-1.2,1.1,0,.4.2.6.5.6A1.06,1.06,0,0,0,93.15,58Z"/><path d="M97.15,55.15h-1.6v-1.1h3v5.4h-1.4Zm-.2-2.8a.82.82,0,0,1,.9-.8.74.74,0,0,1,.8.8.79.79,0,0,1-.8.8A.82.82,0,0,1,97,52.35Z"/><path d="M100.35,54.05h1.1l.1.6h0a1.36,1.36,0,0,1,1.1-.7c1,0,1.6.9,1.6,2.7,0,2-.8,2.9-1.7,2.9a1.38,1.38,0,0,1-.9-.5v2.3h-1.4l.1-7.3Zm2.6,2.6c0-1.1-.2-1.6-.6-1.6q-.3,0-.6.6v2.5c.2.3.3.3.5.3C102.65,58.35,103,58,103,56.65Z"/><path d="M105.05,56.75c0-1.8,1.1-2.8,2.2-2.8,1.3,0,1.9,1.1,1.9,2.6v.7h-2.7c.1.9.5,1.3,1.1,1.3a1.61,1.61,0,0,0,.9-.3l.5.9a2.69,2.69,0,0,1-1.5.5A2.64,2.64,0,0,1,105.05,56.75Zm2.9-.6c0-.7-.2-1.2-.7-1.2s-.8.4-.8,1.2Z"/><path d="M111.65,55.15h-1.6v-1.1h3v5.4h-1.4Zm-.2-2.8a.82.82,0,0,1,.9-.8.74.74,0,0,1,.8.8.79.79,0,0,1-.8.8C111.75,53.15,111.45,52.85,111.45,52.35Z"/><path d="M14.7,22.4c11.1,2.8,9.2,10.3,5.7,8.1a16.11,16.11,0,0,0-1.5-2.9c-4,.8-9.9,1.8-17,2.8a1.56,1.56,0,0,1-.8.6L0,27.3A3.63,3.63,0,0,0,1.1,27c2.8-1.5,6.9-6.1,8.2-8.7l4.5,1.8c-.1.3-.5.5-1.1.5a40.7,40.7,0,0,1-9.6,6.8c3.7-.1,9.4-.2,15.4-.4a32.81,32.81,0,0,0-3.9-4.3ZM18,30.9l3.4,2.6a3,3,0,0,1-1.3.7V43a5.44,5.44,0,0,1-2.8.8h-.5V41.5H6.3v1.4c0,.3-1.5,1.1-2.9,1.1H2.8V31.4l3.6,1.4h9.9Zm-1.3,9.8V33.5H6.2v7.2Z"/><path d="M39.1,37.9l.1.3a102,102,0,0,1-10.3,5,1.34,1.34,0,0,1-.8.7l-1.6-4.1c1.4-.1,4-.5,7.2-1V28.1H27.5l-.2-.8h6.5V19l4.2.4c-.1.4-.2.7-1,.8V38.3Zm11.5,1.8c.9.4,1.1.8,1.1,1.3,0,1.4-1.3,2-5.6,2H43.7c-2.7,0-3.6-.7-3.6-3V19l4.2.5c0,.4-.3.7-1,.8v7.1H47l1.4-2.5s1.6,1.8,2.4,2.8c-.1.3-.3.4-.7.4H43.3v11c0,.7.2.8,1.1.8h3.8a.75.75,0,0,0,.7-.4,28.3,28.3,0,0,0,1.3-3.9h.3Z"/><path d="M107.7,40.1c1.2.1,2.6.2,4.1.2,1.7,0,5.5,0,7.3-.1v.3c-1,.2-1.5,1.4-1.6,2.7h-5.8c-6.2,0-9.6-1.3-11.4-6.6a15.1,15.1,0,0,1-6.7,7.3l-.2-.2c3.5-3.5,4.8-8.7,5.1-12.8l4.3.7c-.1.4-.4.6-1,.7a16.15,16.15,0,0,1-1,3.6,7.2,7.2,0,0,0,3.9,3.6V28.9l4.2.4c-.1.4-.2.6-.9.7v3.4h3.8l1.9-2.3s2.1,1.5,3.4,2.6c-.1.3-.4.4-.8.4H108v6Zm-3.3-12.2V23.6H96.5l-.2-.8h8.2V18.4l4.3.4c-.1.4-.3.7-1,.8v3.3h3.6l1.8-2.2s2.1,1.5,3.3,2.6c-.1.3-.4.4-.8.4h-8V28h5.9l1.9-2.3s2.1,1.5,3.4,2.6c-.1.3-.4.4-.8.4H93.9l-.2-.8Z"/><path d="M134.1,40.1c1.2.1,2.6.2,4.1.2,1.7,0,5.5,0,7.3-.1v.3c-1,.2-1.5,1.4-1.6,2.7h-5.8c-6.2,0-9.6-1.3-11.4-6.6a15.1,15.1,0,0,1-6.7,7.3l-.2-.2c3.5-3.5,4.8-8.7,5.1-12.8l4.3.7c-.1.4-.4.6-1,.7a16.15,16.15,0,0,1-1,3.6,7.2,7.2,0,0,0,3.9,3.6V28.9l4.2.4c-.1.4-.2.6-.9.7v3.4h3.8l1.9-2.3s2.1,1.5,3.4,2.6c-.1.3-.4.4-.8.4h-8.3v6Zm-3.3-12.2V23.6h-8l-.2-.8h8.2V18.4l4.3.4c-.1.4-.3.7-1,.8v3.3h3.6l1.8-2.2s2.1,1.5,3.3,2.6c-.1.3-.4.4-.8.4h-8V28h5.9l1.9-2.3s2.1,1.5,3.4,2.6c-.1.3-.4.4-.8.4H120.2l-.2-.8Z"/><path class="cls-1" d="M60.7,2.7a1,1,0,1,1,1-1A.94.94,0,0,1,60.7,2.7Z"/><path d="M60.7,1.3a.43.43,0,0,1,.4.4.4.4,0,0,1-.8,0,.43.43,0,0,1,.4-.4m0-1.3A1.75,1.75,0,0,0,59,1.7a1.7,1.7,0,1,0,3.4,0A1.69,1.69,0,0,0,60.7,0Z"/><path class="cls-1" d="M64.1,2.7a1,1,0,1,1,1-1A.94.94,0,0,1,64.1,2.7Z"/><path d="M64.1,1.3a.43.43,0,0,1,.4.4.4.4,0,1,1-.8,0,.43.43,0,0,1,.4-.4m0-1.3a1.75,1.75,0,0,0-1.7,1.7,1.7,1.7,0,0,0,3.4,0A1.75,1.75,0,0,0,64.1,0Z"/><path class="cls-1" d="M60.7,9.5a1,1,0,1,1,1-1A1,1,0,0,1,60.7,9.5Z"/><path d="M60.7,8.1a.4.4,0,1,1-.4.4c.1-.2.2-.4.4-.4m0-1.3A1.75,1.75,0,0,0,59,8.5a1.7,1.7,0,1,0,3.4,0,1.63,1.63,0,0,0-1.7-1.7Z"/><path class="cls-1" d="M64.1,9.5a1,1,0,1,1,1-1A1,1,0,0,1,64.1,9.5Z"/><path d="M64.1,8.1a.4.4,0,1,1-.4.4.43.43,0,0,1,.4-.4m0-1.3a1.75,1.75,0,0,0-1.7,1.7,1.7,1.7,0,0,0,3.4,0,1.69,1.69,0,0,0-1.7-1.7Z"/><path class="cls-1" d="M64.1,19.6a1,1,0,1,1,1-1A.94.94,0,0,1,64.1,19.6Z"/><path d="M64.1,18.2a.4.4,0,1,1-.4.4.43.43,0,0,1,.4-.4m0-1.3a1.7,1.7,0,1,0,1.7,1.7,1.75,1.75,0,0,0-1.7-1.7Z"/><path class="cls-1" d="M67.5,19.6a1,1,0,1,1,1-1A1,1,0,0,1,67.5,19.6Z"/><path d="M67.5,18.2a.4.4,0,1,1-.4.4.43.43,0,0,1,.4-.4m0-1.3a1.7,1.7,0,1,0,1.7,1.7,1.75,1.75,0,0,0-1.7-1.7Z"/><path class="cls-1" d="M70.9,19.6a1,1,0,0,1,0-2,1.08,1.08,0,0,1,1,1A1,1,0,0,1,70.9,19.6Z"/><path d="M70.9,18.2a.4.4,0,1,1-.4.4.43.43,0,0,1,.4-.4m0-1.3a1.7,1.7,0,1,0,1.7,1.7,1.75,1.75,0,0,0-1.7-1.7Z"/><path class="cls-1" d="M64.1,12.9a1,1,0,1,1,1-1A1,1,0,0,1,64.1,12.9Z"/><path d="M64.1,11.5a.4.4,0,1,1-.4.4.37.37,0,0,1,.4-.4m0-1.4a1.7,1.7,0,1,0,1.7,1.7,1.75,1.75,0,0,0-1.7-1.7Z"/><path class="cls-1" d="M67.5,12.9a1,1,0,1,1,1-1A1.08,1.08,0,0,1,67.5,12.9Z"/><path d="M67.5,11.5a.4.4,0,1,1-.4.4.37.37,0,0,1,.4-.4m0-1.4a1.7,1.7,0,1,0,1.7,1.7,1.75,1.75,0,0,0-1.7-1.7Z"/><path class="cls-1" d="M70.9,12.9a1,1,0,0,1,0-2,1.08,1.08,0,0,1,1,1A1.08,1.08,0,0,1,70.9,12.9Z"/><path d="M70.9,11.5a.4.4,0,1,1-.4.4.37.37,0,0,1,.4-.4m0-1.4a1.7,1.7,0,1,0,1.7,1.7,1.75,1.75,0,0,0-1.7-1.7Z"/><path class="cls-1" d="M74.2,12.9a1,1,0,1,1,1-1A.94.94,0,0,1,74.2,12.9Z"/><path d="M74.2,11.5a.4.4,0,1,1-.4.4c.1-.3.2-.4.4-.4m0-1.4a1.7,1.7,0,1,0,1.7,1.7,1.69,1.69,0,0,0-1.7-1.7Z"/><path class="cls-1" d="M77.6,12.9a1,1,0,1,1,1-1A.94.94,0,0,1,77.6,12.9Z"/><path d="M77.6,11.5a.4.4,0,1,1-.4.4c.1-.3.2-.4.4-.4m0-1.4a1.7,1.7,0,1,0,1.7,1.7,1.69,1.69,0,0,0-1.7-1.7Z"/><path class="cls-1" d="M60.7,43.3a1,1,0,1,1,1-1A1,1,0,0,1,60.7,43.3Z"/><path d="M60.7,41.9a.4.4,0,1,1-.4.4c.1-.2.2-.4.4-.4m0-1.3a1.7,1.7,0,1,0,1.7,1.7,1.63,1.63,0,0,0-1.7-1.7Z"/><circle class="cls-1" cx="64.1" cy="42.3" r="1"/><path d="M64.1,41.9a.4.4,0,1,1-.4.4.43.43,0,0,1,.4-.4m0-1.3a1.7,1.7,0,1,0,1.7,1.7,1.69,1.69,0,0,0-1.7-1.7Z"/><path class="cls-1" d="M67.5,39.9a1,1,0,1,1,1-1A1,1,0,0,1,67.5,39.9Z"/><path d="M67.5,38.5a.4.4,0,1,1-.4.4.43.43,0,0,1,.4-.4m0-1.3a1.7,1.7,0,1,0,1.7,1.7,1.75,1.75,0,0,0-1.7-1.7Z"/><path class="cls-1" d="M67.5,36.5a1,1,0,1,1,1-1A1,1,0,0,1,67.5,36.5Z"/><path d="M67.5,35.2a.4.4,0,1,1-.4.4.43.43,0,0,1,.4-.4m0-1.4a1.7,1.7,0,1,0,1.7,1.7,1.75,1.75,0,0,0-1.7-1.7Z"/><path class="cls-1" d="M67.5,33.2a1,1,0,1,1,1-1A1.08,1.08,0,0,1,67.5,33.2Z"/><path d="M67.5,31.8a.4.4,0,1,1-.4.4.43.43,0,0,1,.4-.4m0-1.4a1.7,1.7,0,1,0,1.7,1.7,1.75,1.75,0,0,0-1.7-1.7Z"/><path class="cls-1" d="M84.4,43.3a1,1,0,0,1-.2-2h.2a1,1,0,0,1,1,.8,1.13,1.13,0,0,1-.1.8.82.82,0,0,1-.6.4Z"/><path d="M84.4,41.9a.32.32,0,0,1,.3.3c0,.2-.1.4-.3.4h-.1a.32.32,0,0,1-.3-.3c0-.1.1-.3.4-.4h0m0-1.3H84a1.67,1.67,0,0,0,.4,3.3h.4a1.67,1.67,0,0,0-.4-3.3Z"/><path class="cls-1" d="M87.8,39.9a1,1,0,1,1,1-1A1,1,0,0,1,87.8,39.9Z"/><path d="M87.8,38.5a.4.4,0,1,1-.4.4.43.43,0,0,1,.4-.4m0-1.3a1.7,1.7,0,1,0,1.7,1.7,1.75,1.75,0,0,0-1.7-1.7Z"/><path class="cls-1" d="M87.8,36.5a1,1,0,1,1,1-1A1,1,0,0,1,87.8,36.5Z"/><path d="M87.8,35.2a.4.4,0,1,1-.4.4.43.43,0,0,1,.4-.4m0-1.4a1.7,1.7,0,1,0,1.7,1.7,1.75,1.75,0,0,0-1.7-1.7Z"/><path class="cls-1" d="M84.4,33.2a1,1,0,0,1-.9-.6,1.06,1.06,0,0,1-.1-.8,1,1,0,0,1,.5-.6.75.75,0,0,1,.5-.1,1.05,1.05,0,0,1,.9.5,1.06,1.06,0,0,1,.1.8,1,1,0,0,1-.5.6C84.7,33.1,84.6,33.2,84.4,33.2Z"/><path d="M84.4,31.8c.1,0,.2.1.3.2s0,.2,0,.3a.22.22,0,0,1-.2.2h-.2c-.1,0-.2-.1-.3-.2a.37.37,0,0,1,.2-.5h.2m0-1.4a2.35,2.35,0,0,0-.8.2,1.76,1.76,0,0,0-.7,2.3,1.65,1.65,0,0,0,1.5.9,2.35,2.35,0,0,0,.8-.2,1.76,1.76,0,0,0,.7-2.3,1.86,1.86,0,0,0-1.5-.9Z"/><path class="cls-1" d="M77.6,29.8a1,1,0,1,1,1-1A.94.94,0,0,1,77.6,29.8Z"/><path d="M77.6,28.4a.4.4,0,1,1-.4.4c.1-.2.2-.4.4-.4m0-1.3a1.7,1.7,0,1,0,1.7,1.7,1.63,1.63,0,0,0-1.7-1.7Z"/><path class="cls-1" d="M74.2,26.4a1,1,0,1,1,1-1A.94.94,0,0,1,74.2,26.4Z"/><path d="M74.2,25a.4.4,0,1,1-.4.4c.1-.2.2-.4.4-.4m0-1.3a1.7,1.7,0,1,0,1.7,1.7,1.63,1.63,0,0,0-1.7-1.7Z"/><path class="cls-1" d="M74.2,23a1,1,0,1,1,1-1C75.3,22.6,74.8,23,74.2,23Z"/><path d="M74.2,21.6a.4.4,0,1,1-.4.4c.1-.2.2-.4.4-.4m0-1.3A1.7,1.7,0,1,0,75.9,22a1.69,1.69,0,0,0-1.7-1.7Z"/><path class="cls-1" d="M70.9,26.4a1,1,0,0,1,0-2,1,1,0,0,1,0,2Z"/><path d="M70.9,25a.4.4,0,1,1-.4.4.43.43,0,0,1,.4-.4m0-1.3a1.7,1.7,0,1,0,1.7,1.7,1.69,1.69,0,0,0-1.7-1.7Z"/><circle class="cls-1" cx="70.9" cy="22" r="1"/><path d="M70.9,21.6a.4.4,0,1,1-.4.4.43.43,0,0,1,.4-.4m0-1.3A1.7,1.7,0,1,0,72.6,22a1.75,1.75,0,0,0-1.7-1.7Z"/><path class="cls-1" d="M70.9,29.8a1,1,0,0,1,0-2,1,1,0,0,1,0,2Z"/><path d="M70.9,28.4a.4.4,0,1,1-.4.4.43.43,0,0,1,.4-.4m0-1.3a1.7,1.7,0,1,0,1.7,1.7,1.69,1.69,0,0,0-1.7-1.7Z"/><path class="cls-1" d="M81,33.2a1,1,0,1,1,1-1A1,1,0,0,1,81,33.2Z"/><path d="M81,31.8a.4.4,0,1,1-.4.4c.1-.3.2-.4.4-.4m0-1.4a1.7,1.7,0,1,0,1.7,1.7A1.75,1.75,0,0,0,81,30.4Z"/><circle class="cls-1" cx="81" cy="15.2" r="1"/><path d="M81,14.9a.4.4,0,1,1-.4.4.43.43,0,0,1,.4-.4m0-1.4a1.7,1.7,0,1,0,1.7,1.7A1.75,1.75,0,0,0,81,13.5Z"/><path class="cls-1" d="M60.7,23a1,1,0,1,1,1-1A.94.94,0,0,1,60.7,23Z"/><path d="M60.7,21.6a.4.4,0,1,1-.4.4c.1-.2.2-.4.4-.4m0-1.3A1.7,1.7,0,1,0,62.4,22a1.69,1.69,0,0,0-1.7-1.7Z"/><path class="cls-1" d="M84.4,19.6a1,1,0,1,1,1-1A.94.94,0,0,1,84.4,19.6Z"/><path d="M84.4,18.2a.4.4,0,1,1-.4.4.43.43,0,0,1,.4-.4m0-1.3a1.7,1.7,0,1,0,1.7,1.7,1.75,1.75,0,0,0-1.7-1.7Z"/><path class="cls-1" d="M57.3,6.1a1,1,0,0,1-1-1,1.08,1.08,0,0,1,1-1,1,1,0,0,1,0,2Z"/><path d="M57.3,4.7a.43.43,0,0,1,.4.4.4.4,0,1,1-.8,0c.1-.2.2-.4.4-.4m0-1.3a1.75,1.75,0,0,0-1.7,1.7,1.7,1.7,0,0,0,3.4,0,1.69,1.69,0,0,0-1.7-1.7Z"/><path class="cls-1" d="M60.7,6.1a1,1,0,0,1-1-1,1.08,1.08,0,0,1,1-1,1,1,0,0,1,0,2Z"/><path d="M60.7,4.7a.43.43,0,0,1,.4.4.4.4,0,0,1-.8,0c.1-.2.2-.4.4-.4m0-1.3A1.75,1.75,0,0,0,59,5.1a1.7,1.7,0,1,0,3.4,0,1.69,1.69,0,0,0-1.7-1.7Z"/><circle class="cls-1" cx="64.1" cy="5.1" r="1"/><path d="M64.1,4.7a.43.43,0,0,1,.4.4.4.4,0,1,1-.8,0,.43.43,0,0,1,.4-.4m0-1.3a1.75,1.75,0,0,0-1.7,1.7,1.7,1.7,0,0,0,3.4,0,1.75,1.75,0,0,0-1.7-1.7Z"/><path class="cls-1" d="M67.5,6.1a1,1,0,0,1-1-1,1.08,1.08,0,0,1,1-1,1,1,0,0,1,1,1A1.08,1.08,0,0,1,67.5,6.1Z"/><path d="M67.5,4.7a.43.43,0,0,1,.4.4.4.4,0,0,1-.8,0,.43.43,0,0,1,.4-.4m0-1.3a1.75,1.75,0,0,0-1.7,1.7,1.7,1.7,0,1,0,3.4,0,1.75,1.75,0,0,0-1.7-1.7Z"/><circle cx="60.7" cy="1.7" r="0.7"/><path d="M60.7,2.57a.87.87,0,1,1,.87-.87A.87.87,0,0,1,60.7,2.57Zm0-1.4a.53.53,0,1,0,.53.53A.53.53,0,0,0,60.7,1.17Z"/><circle cx="64.5" cy="1.9" r="1"/><path d="M64.5,3.07A1.17,1.17,0,1,1,65.67,1.9,1.17,1.17,0,0,1,64.5,3.07Zm0-2a.83.83,0,1,0,.83.83A.83.83,0,0,0,64.5,1.07Z"/><circle cx="64.1" cy="5.1" r="1"/><path d="M64.1,6.27A1.17,1.17,0,1,1,65.27,5.1,1.17,1.17,0,0,1,64.1,6.27Zm0-2a.83.83,0,0,0,0,1.66.83.83,0,0,0,0-1.66Z"/><circle cx="60.7" cy="5.2" r="0.7"/><path d="M60.7,6.07a.87.87,0,1,1,.87-.87A.87.87,0,0,1,60.7,6.07Zm0-1.4a.53.53,0,1,0,.53.53A.53.53,0,0,0,60.7,4.67Z"/><ellipse cx="57.3" cy="5" rx="1" ry="0.5"/><path d="M57.3,5.67c-.67,0-1.17-.29-1.17-.67s.5-.67,1.17-.67,1.17.29,1.17.67S58,5.67,57.3,5.67Zm0-1c-.5,0-.83.2-.83.33s.33.33.83.33.83-.2.83-.33S57.8,4.67,57.3,4.67Z"/><ellipse cx="60.7" cy="8.7" rx="0.7" ry="0.9"/><path d="M60.7,9.77a1,1,0,0,1-.87-1.07.89.89,0,1,1,1.74,0A1,1,0,0,1,60.7,9.77Zm0-1.8c-.29,0-.53.33-.53.73s.24.73.53.73.53-.33.53-.73S61,8,60.7,8Z"/><ellipse cx="64.1" cy="8.7" rx="0.7" ry="0.9"/><path d="M64.1,9.77a1,1,0,0,1-.87-1.07A.89.89,0,1,1,65,8.7,1,1,0,0,1,64.1,9.77Zm0-1.8c-.28,0-.53.34-.53.73s.24.73.53.73.53-.33.53-.73S64.39,8,64.1,8Z"/><circle cx="67.3" cy="5.1" r="0.8"/><circle cx="64.2" cy="11.8" r="0.7"/><circle cx="67.6" cy="11.8" r="0.7"/><ellipse cx="71.2" cy="12.1" rx="1" ry="0.8"/><ellipse cx="74.1" cy="12.1" rx="0.5" ry="0.8"/><ellipse cx="77.6" cy="12.3" rx="0.8" ry="1"/><ellipse cx="81" cy="15.5" rx="0.7" ry="0.9"/><circle cx="84.6" cy="18.5" r="0.6"/><circle cx="71" cy="15.2" r="1.6"/><circle cx="67.6" cy="15.2" r="1.6"/><circle cx="64.2" cy="15.2" r="1.6"/><ellipse cx="71" cy="18.6" rx="0.8" ry="0.7"/><circle cx="67.7" cy="18.6" r="0.8"/><circle cx="64.1" cy="18.7" r="0.8"/><ellipse cx="60.7" cy="22.3" rx="0.8" ry="0.9"/><ellipse cx="70.9" cy="22.3" rx="0.7" ry="0.9"/><circle cx="74.4" cy="22.4" r="0.8"/><ellipse cx="74.35" cy="25.19" rx="0.7" ry="1" transform="matrix(0.58, -0.82, 0.82, 0.58, 10.82, 71.31)"/><ellipse cx="70.9" cy="25.4" rx="0.9" ry="0.4"/><ellipse cx="71" cy="28.8" rx="0.5" ry="1"/><circle cx="77.6" cy="29" r="0.8"/><circle cx="67.4" cy="32.4" r="0.7"/><circle cx="67.5" cy="36" r="0.8"/><circle cx="67.6" cy="39.2" r="0.9"/><circle cx="64.1" cy="42.3" r="0.7"/><ellipse cx="60.7" cy="42.3" rx="0.7" ry="0.9"/><ellipse cx="81" cy="32.2" rx="1" ry="0.9"/><circle cx="84.3" cy="32.2" r="0.9"/><ellipse cx="88" cy="35.6" rx="0.8" ry="0.4"/><circle cx="87.8" cy="39.1" r="1"/><circle cx="84.1" cy="42.3" r="0.7"/></g></g></svg>